<svg width="296" height="282" viewBox="0 0 296 282" fill="none" xmlns="http://www.w3.org/2000/svg">
<ellipse cx="149" cy="113" rx="125" ry="110" stroke="#612F74" stroke-width="5"/>
<path d="M241.33 52V89H232.33V61H164.73V182H184.73V191H111.53V182H131.33V61H63.7297V89H54.7297V52H241.33Z" fill="#511368"/>
<path d="M79.3901 164.2C85.6301 163.24 91.0701 162.44 95.7101 161.8C100.43 161.16 103.87 160.84 106.03 160.84C108.27 160.84 109.95 161.04 111.07 161.44C112.27 161.76 112.87 162.48 112.87 163.6C112.87 165.84 106.83 168.4 94.7501 171.28C82.7501 174.08 73.9501 175.48 68.3501 175.48C65.8701 175.48 63.2701 174.4 60.5501 172.24C57.9101 170 56.5901 167.68 56.5901 165.28C56.5901 163.36 60.4301 159.52 68.1101 153.76C75.3101 148.48 82.3901 142.32 89.3501 135.28C92.6301 131.92 95.3501 128.24 97.5101 124.24C99.7501 120.16 100.87 116.44 100.87 113.08C100.87 109.64 100.11 106.96 98.5901 105.04C97.0701 103.12 94.9901 102.16 92.3501 102.16C89.7101 102.16 87.2301 102.96 84.9101 104.56C82.5901 106.16 80.7101 107.76 79.2701 109.36C77.8301 110.88 76.9101 111.64 76.5101 111.64C75.1501 111.64 73.5501 111.04 71.7101 109.84C69.8701 108.64 68.9501 107.44 68.9501 106.24C68.9501 103.28 71.3901 100 76.2701 96.4C81.2301 92.8 86.5101 91 92.1101 91C97.7101 91 102.35 93 106.03 97C109.79 100.92 111.67 105.8 111.67 111.64C111.67 128.92 96.8701 147.04 67.2701 166C69.1901 165.76 73.2301 165.16 79.3901 164.2Z" fill="#511368"/>
<path d="M189.757 95.8C189.757 95 193.037 94.12 199.597 93.16C206.237 92.2 212.717 91.72 219.037 91.72C225.437 91.72 229.477 92.28 231.157 93.4C232.517 94.44 233.677 96.12 234.637 98.44C235.677 100.68 236.197 102.52 236.197 103.96C236.197 105.4 235.797 107.04 234.997 108.88C234.277 110.64 233.197 112.8 231.757 115.36C230.317 117.84 228.877 120.24 227.437 122.56C226.077 124.8 224.437 127.48 222.517 130.6C220.597 133.64 218.757 136.68 216.997 139.72C215.237 142.68 212.277 147.96 208.117 155.56C204.037 163.16 200.997 168.56 198.997 171.76C197.077 174.88 195.597 176.44 194.557 176.44C193.517 176.44 192.517 175.72 191.557 174.28C190.597 172.76 190.117 171.28 190.117 169.84C190.117 167.2 193.077 160.88 198.997 150.88C204.917 140.8 210.837 130.92 216.757 121.24C222.757 111.48 225.757 105.76 225.757 104.08C225.757 102.64 224.397 101.92 221.677 101.92C219.037 101.92 214.757 102.36 208.837 103.24C202.997 104.12 199.277 104.56 197.677 104.56C196.077 104.56 194.357 103.48 192.517 101.32C190.677 99.08 189.757 97.24 189.757 95.8Z" fill="#511368"/>
<path d="M48.8789 236.802C52.1549 236.802 54.6329 238.104 56.3129 240.708C57.9929 243.312 58.8329 246.588 58.8329 250.536C58.8329 254.484 57.8529 258.082 55.8929 261.33C53.9609 264.55 51.7209 266.16 49.1729 266.16C47.3809 266.16 46.0649 265.152 45.2249 263.136C44.3849 261.12 43.8389 258.25 43.5869 254.526C42.4109 256.178 41.0669 258.054 39.5549 260.154C36.6429 264.186 34.5989 266.202 33.4229 266.202C32.9749 266.202 32.4569 265.838 31.8689 265.11C31.2809 264.382 30.9869 263.472 30.9869 262.38C30.9869 261.26 31.3649 257.802 32.1209 252.006C32.8769 246.182 33.2549 241.646 33.2549 238.398C33.2549 237.362 33.5629 236.844 34.1789 236.844C34.7949 236.844 35.5089 237.208 36.3209 237.936C37.1609 238.664 37.5809 239.336 37.5809 239.952C37.5809 240.54 37.1049 243.494 36.1529 248.814C35.2289 254.134 34.6549 258.306 34.4309 261.33C36.1389 258.446 38.0569 255.786 40.1849 253.35C42.3409 250.886 43.8809 249.654 44.8049 249.654C45.7569 249.654 46.4149 251.754 46.7789 255.954C46.9189 257.522 47.1849 258.964 47.5769 260.28C47.9969 261.596 48.5569 262.254 49.2569 262.254C50.8249 262.254 52.1829 260.994 53.3309 258.474C54.5069 255.926 55.0949 253.112 55.0949 250.032C55.0949 246.616 54.3389 243.984 52.8269 242.136C52.0429 241.156 51.1749 240.666 50.2229 240.666C49.2989 240.666 48.5009 240.344 47.8289 239.7C47.1849 239.056 46.8629 238.496 46.8629 238.02C46.8629 237.208 47.5349 236.802 48.8789 236.802ZM69.5524 253.014C68.0404 257.802 67.2844 260.7 67.2844 261.708C67.2844 262.044 67.3824 262.324 67.5784 262.548C67.8024 262.744 68.0824 262.842 68.4184 262.842C71.6384 262.842 75.1944 262.324 79.0864 261.288C80.3464 260.952 81.0744 260.784 81.2704 260.784C81.6904 260.784 81.9004 261.078 81.9004 261.666C81.9004 262.674 80.3464 263.71 77.2384 264.774C74.1584 265.838 71.1764 266.37 68.2924 266.37C67.0044 266.37 65.8704 265.992 64.8904 265.236C63.9384 264.48 63.4624 263.528 63.4624 262.38C63.4624 261.232 63.8684 259.272 64.6804 256.5C65.5204 253.728 66.3604 250.774 67.2004 247.638C68.0404 244.502 68.4604 241.856 68.4604 239.7C68.4604 239.392 68.5164 239.07 68.6284 238.734C69.1044 237.698 72.1564 237.18 77.7844 237.18C83.4124 237.18 86.2264 237.586 86.2264 238.398C86.2264 238.958 85.6244 239.336 84.4204 239.532C83.4124 239.728 82.0684 239.91 80.3884 240.078C78.7364 240.218 77.5744 240.33 76.9024 240.414C76.2304 240.47 74.6064 240.722 72.0304 241.17V241.296C72.0304 243.2 71.5124 246.07 70.4764 249.906C70.6444 249.934 71.2044 249.948 72.1564 249.948C73.1364 249.948 74.4384 249.878 76.0624 249.738C77.6864 249.598 78.9044 249.528 79.7164 249.528C80.5564 249.528 80.9764 249.724 80.9764 250.116C80.9764 251.096 79.8284 251.824 77.5324 252.3C75.2364 252.776 72.5764 253.014 69.5524 253.014ZM109.535 256.332C109.535 257.984 108.681 259.594 106.973 261.162C105.265 262.702 103.053 263.948 100.337 264.9C97.6208 265.824 94.8488 266.286 92.0208 266.286C90.3688 266.286 88.8848 265.824 87.5688 264.9C86.2808 263.976 85.6368 263.122 85.6368 262.338C85.6368 261.526 85.8748 261.12 86.3508 261.12C86.4628 261.12 87.0088 261.428 87.9888 262.044C88.9968 262.632 90.0468 262.94 91.1388 262.968C90.7468 262.772 90.3688 262.408 90.0048 261.876C89.6688 261.344 89.5008 260.84 89.5008 260.364C89.5008 259.888 89.8368 258.558 90.5088 256.374C92.5808 249.794 93.6448 244.74 93.7008 241.212H93.3648C92.8608 241.212 92.3428 240.904 91.8108 240.288C91.2788 239.644 91.0128 239.126 91.0128 238.734C91.0128 238.258 91.6008 237.852 92.7768 237.516C93.9808 237.152 95.4228 236.97 97.1028 236.97C101.023 236.97 104.047 237.502 106.175 238.566C108.303 239.63 109.367 241.17 109.367 243.186C109.367 244.866 108.653 246.392 107.225 247.764C105.825 249.136 103.767 250.242 101.051 251.082L101.429 251.124C103.781 251.264 105.713 251.838 107.225 252.846C108.765 253.854 109.535 255.016 109.535 256.332ZM105.587 243.396C105.587 242.472 105.111 241.758 104.159 241.254C103.235 240.722 102.101 240.456 100.757 240.456C99.4408 240.456 97.8308 240.624 95.9268 240.96C96.7108 241.8 97.1028 242.612 97.1028 243.396C97.1028 244.152 96.6128 246.462 95.6328 250.326C96.3048 249.906 97.3548 249.43 98.7828 248.898C100.211 248.338 101.331 247.848 102.143 247.428C102.983 247.008 103.585 246.644 103.949 246.336C104.341 246 104.705 245.566 105.041 245.034C105.405 244.502 105.587 243.956 105.587 243.396ZM105.881 256.164C105.881 255.324 104.901 254.624 102.941 254.064C101.009 253.476 99.0768 253.182 97.1448 253.182C96.3888 253.182 95.7308 252.79 95.1708 252.006C93.4628 258.754 92.3428 262.408 91.8108 262.968C93.7988 262.912 95.8848 262.562 98.0688 261.918C100.253 261.246 102.101 260.378 103.613 259.314C105.125 258.25 105.881 257.2 105.881 256.164ZM135.326 236.718C137.958 236.718 140.758 237.404 143.726 238.776C146.722 240.148 149.298 242.052 151.454 244.488C153.61 246.896 154.688 249.402 154.688 252.006C154.688 253.714 153.498 255.73 151.118 258.054C148.766 260.35 146.036 262.324 142.928 263.976C139.82 265.6 137.244 266.412 135.2 266.412C134.668 266.412 134.052 265.964 133.352 265.068C132.68 264.144 132.344 263.22 132.344 262.296C132.344 261.344 133.156 257.956 134.78 252.132C136.404 246.308 137.286 242.472 137.426 240.624C136.53 240.26 135.816 239.784 135.284 239.196C134.752 238.608 134.486 238.048 134.486 237.516C134.486 236.984 134.766 236.718 135.326 236.718ZM150.824 251.544C150.824 249.808 149.788 247.932 147.716 245.916C145.644 243.872 143.236 242.402 140.492 241.506C140.632 242.01 140.702 242.612 140.702 243.312C140.702 243.984 140.45 245.258 139.946 247.134C139.47 249.01 138.588 252.146 137.3 256.542C136.768 258.39 136.334 260.42 135.998 262.632C137.93 262.38 140.086 261.54 142.466 260.112C144.874 258.656 146.862 257.102 148.43 255.45C150.026 253.798 150.824 252.496 150.824 251.544ZM164.791 253.014C163.279 257.802 162.523 260.7 162.523 261.708C162.523 262.044 162.621 262.324 162.817 262.548C163.041 262.744 163.321 262.842 163.657 262.842C166.877 262.842 170.433 262.324 174.325 261.288C175.585 260.952 176.313 260.784 176.509 260.784C176.929 260.784 177.139 261.078 177.139 261.666C177.139 262.674 175.585 263.71 172.477 264.774C169.397 265.838 166.415 266.37 163.531 266.37C162.243 266.37 161.109 265.992 160.129 265.236C159.177 264.48 158.701 263.528 158.701 262.38C158.701 261.232 159.107 259.272 159.919 256.5C160.759 253.728 161.599 250.774 162.439 247.638C163.279 244.502 163.699 241.856 163.699 239.7C163.699 239.392 163.755 239.07 163.867 238.734C164.343 237.698 167.395 237.18 173.023 237.18C178.651 237.18 181.465 237.586 181.465 238.398C181.465 238.958 180.863 239.336 179.659 239.532C178.651 239.728 177.307 239.91 175.627 240.078C173.975 240.218 172.813 240.33 172.141 240.414C171.469 240.47 169.845 240.722 167.269 241.17V241.296C167.269 243.2 166.751 246.07 165.715 249.906C165.883 249.934 166.443 249.948 167.395 249.948C168.375 249.948 169.677 249.878 171.301 249.738C172.925 249.598 174.143 249.528 174.955 249.528C175.795 249.528 176.215 249.724 176.215 250.116C176.215 251.096 175.067 251.824 172.771 252.3C170.475 252.776 167.815 253.014 164.791 253.014ZM200.279 258.012C200.279 260.308 199.243 262.24 197.171 263.808C195.099 265.348 192.719 266.118 190.031 266.118C187.371 266.118 185.173 265.432 183.437 264.06C181.701 262.66 180.833 261.344 180.833 260.112C180.833 259.272 181.085 258.852 181.589 258.852C182.037 258.852 182.919 259.524 184.235 260.868C184.739 261.344 185.411 261.792 186.251 262.212C187.119 262.632 188.029 262.842 188.981 262.842C190.941 262.842 192.677 262.338 194.189 261.33C195.729 260.322 196.499 259.23 196.499 258.054C196.499 257.298 195.995 256.332 194.987 255.156C193.979 253.98 192.859 252.874 191.627 251.838C190.423 250.774 189.317 249.64 188.309 248.436C187.301 247.232 186.797 246.28 186.797 245.58C186.797 244.88 186.937 244.138 187.217 243.354C187.497 242.57 187.805 241.996 188.141 241.632C189.233 240.428 190.927 239.322 193.223 238.314C195.547 237.306 197.493 236.802 199.061 236.802C199.873 236.802 200.559 237.068 201.119 237.6C201.679 238.132 201.959 238.692 201.959 239.28C201.959 239.56 201.665 239.784 201.077 239.952C200.489 240.12 199.593 240.344 198.389 240.624C197.213 240.876 196.163 241.184 195.239 241.548C192.019 242.78 190.409 243.97 190.409 245.118C190.409 245.734 192.047 247.456 195.323 250.284C196.583 251.376 197.717 252.65 198.725 254.106C199.761 255.534 200.279 256.836 200.279 258.012ZM207.934 266.202C207.598 266.202 207.15 265.866 206.59 265.194C206.058 264.522 205.792 263.906 205.792 263.346C205.792 262.786 206.618 258.88 208.27 251.628C209.95 244.348 210.804 239.84 210.832 238.104C210.832 237.628 210.888 237.306 211 237.138C211.14 236.942 211.406 236.844 211.798 236.844C212.218 236.844 212.75 237.278 213.394 238.146C214.066 239.014 214.402 239.952 214.402 240.96C214.402 241.94 213.394 246.532 211.378 254.736C211.182 255.492 210.916 256.584 210.58 258.012C210.244 259.412 209.978 260.49 209.782 261.246C209.586 262.002 209.376 262.828 209.152 263.724C208.676 265.376 208.27 266.202 207.934 266.202ZM235.3 240.792C233.536 240.792 231.576 241.758 229.42 243.69C227.292 245.622 225.472 248.044 223.96 250.956C222.448 253.84 221.692 256.528 221.692 259.02C221.692 260.028 222.014 260.896 222.658 261.624C223.302 262.324 224.058 262.674 224.926 262.674C226.27 262.674 227.838 261.946 229.63 260.49C231.45 259.006 233.13 257.102 234.67 254.778C233.102 255.198 231.94 255.408 231.184 255.408C230.428 255.408 229.784 255.212 229.252 254.82C228.72 254.4 228.454 254.008 228.454 253.644C228.454 253.196 229.056 252.846 230.26 252.594C231.464 252.314 232.976 252.174 234.796 252.174C235.804 252.174 236.616 252.608 237.232 253.476C237.876 254.316 238.198 255.31 238.198 256.458C238.198 257.578 237.498 260.238 236.098 264.438C234.698 268.638 233.634 270.738 232.906 270.738C232.206 270.738 231.856 270.332 231.856 269.52C231.856 268.736 232.052 267.672 232.444 266.328C232.864 264.984 233.298 263.612 233.746 262.212C234.194 260.784 234.558 259.622 234.838 258.726C233.466 261.05 231.912 262.898 230.176 264.27C228.44 265.614 226.746 266.286 225.094 266.286C223.47 266.286 221.86 265.53 220.264 264.018C218.668 262.478 217.87 260.798 217.87 258.978C217.87 256.15 218.766 253 220.558 249.528C222.35 246.056 224.604 243.088 227.32 240.624C230.036 238.132 232.584 236.886 234.964 236.886C235.748 236.886 236.518 237.362 237.274 238.314C238.03 239.238 238.408 239.994 238.408 240.582C238.408 241.142 238.254 241.422 237.946 241.422C237.862 241.422 237.554 241.324 237.022 241.128C236.49 240.904 235.916 240.792 235.3 240.792ZM265.217 238.44C265.273 237.236 265.553 236.634 266.057 236.634C266.589 236.634 267.163 236.956 267.779 237.6C268.395 238.244 268.703 238.818 268.703 239.322C268.703 241.618 268.339 244.88 267.611 249.108C266.911 253.336 265.959 257.256 264.755 260.868C263.579 264.48 262.459 266.286 261.395 266.286C261.031 266.286 260.611 266.104 260.135 265.74C259.687 265.376 259.337 264.928 259.085 264.396C258.245 262.436 255.767 256.22 251.651 245.748C250.811 248.996 249.873 252.678 248.837 256.794C247.829 260.882 247.157 263.486 246.821 264.606C246.485 265.726 246.191 266.286 245.939 266.286C245.575 266.286 245.127 265.978 244.595 265.362C244.091 264.718 243.839 264.06 243.839 263.388C243.839 262.716 244.749 258.782 246.569 251.586C248.389 244.362 249.327 239.854 249.383 238.062C249.383 237.166 249.621 236.718 250.097 236.718C250.405 236.718 250.825 236.984 251.357 237.516C251.917 238.02 252.323 238.58 252.575 239.196C257.083 250.9 259.939 258.068 261.143 260.7C262.963 255.884 264.181 250.13 264.797 243.438C265.077 240.358 265.217 238.692 265.217 238.44Z" fill="#612F74"/>
</svg>
